<svg fill="none" height="41" viewBox="0 0 135 41" width="135" xmlns="http://www.w3.org/2000/svg">
    <path d="m27.0127 19.1271c0-3.3982-1.4263-5.7462-4.1521-5.7462-3.3558 0-5.6207 2.8104-5.7461 7.3402v10.7383h-3.6082v-12.3323c0-3.3982-1.384-5.7462-4.11124-5.7462-3.3966 0-5.78843 2.9358-5.78843 7.6756v10.4029h-3.60663v-20.9719h3.60814v3.2289c1.21631-2.2226 3.48122-3.649 6.33389-3.649 3.14577 0 5.41067 1.6772 6.45927 4.4891 1.1317-2.7273 3.6913-4.4891 6.8794-4.4891 4.5721 0 7.3401 3.3558 7.3401 8.5157v12.8778h-3.6081zm6.2553 1.8448c0-6.0407 4.6144-10.906 10.9891-10.906s10.9483 4.8653 10.9483 10.906c0 6.0408-4.6552 10.906-10.9483 10.906s-10.9891-4.8652-10.9891-10.906zm18.2462 0c0-4.1944-2.895-7.5502-7.2571-7.5502s-7.2978 3.3558-7.2978 7.5502 2.9357 7.5502 7.2978 7.5502 7.2571-3.3558 7.2571-7.5502zm6.3399-20.9719h3.6082v31.4594h-3.6082zm50.0469 10.4829h3.608v4.069c.797-2.6849 3.482-4.279 5.872-4.279.545 0 1.091.0423 1.636.1677v3.7336c-.671-.2931-1.258-.3354-1.972-.3354-2.642 0-5.536 2.3072-5.536 7.2147v10.4059h-3.608zm17.452 14.7695v-11.4499h-4.447v-3.3135h4.447v-5.83075h3.606v5.83075h6.041v3.3135h-6.041v10.9891c0 2.685 1.174 3.5658 3.481 3.5658.881 0 1.888-.1254 2.558-.42v3.2304c-.88.2931-1.929.5031-3.228.5031-3.692 0-6.417-2.0548-6.417-6.4185zm-20.238-5.0435c-.351-5.2823-4.589-9.6202-9.8574-10.0901-3.3196-.29614-6.5394.9081-8.833 3.3044-.2418.2524-.5666.3914-.9156.3914-.3491 0-.6739-.139-.9157-.3914-2.2936-2.3963-5.5134-3.60054-8.8314-3.3044-2.3934.213-4.5737 1.2269-6.2735 2.7635v-2.3948h-3.6081v10.2729.0997 19.3673h3.6081v-11.1916c1.9854 1.7799 4.5827 2.7877 7.2646 2.7877 2.898 0 5.6238-1.1286 7.6741-3.179.5969-.5968 1.5684-.5968 2.1637 0 2.0504 2.0504 4.7761 3.179 7.6741 3.179s5.8931-1.2556 7.9411-3.4464c2.078-2.2211 3.111-5.1221 2.909-8.1682zm-5.5452 5.7008c-1.3885 1.4837-3.2727 2.3027-5.3049 2.3027s-3.7517-.754-5.1206-2.1214c-1.0018-1.0017-2.3193-1.5034-3.6353-1.5034-1.3161 0-2.6336.5017-3.6354 1.5034-1.3689 1.3674-3.1866 2.1214-5.1206 2.1214-2.0322 0-3.9163-.8174-5.3049-2.3027-1.387-1.4837-2.0775-3.4223-1.9416-5.4621.2342-3.525 3.0612-6.42 6.5757-6.7327 2.2196-.198 4.3726.6058 5.9032 2.2059.9293.9701 2.1803 1.5049 3.5236 1.5049 1.3432 0 2.5943-.5348 3.5235-1.5049 1.5321-1.6001 3.6837-2.4039 5.9033-2.2059 3.5144.3127 6.3412 3.2077 6.5752 6.7327.136 2.0383-.554 3.9784-1.9412 5.4606z"
          fill="#201232"/>
</svg>